<svg version="1.1" id="Layer_1" xmlns="http://www.w3.org/2000/svg" xmlns:xlink="http://www.w3.org/1999/xlink" x="0px" y="0px"
	 width="100%" viewBox="0 0 400 400" enable-background="new 0 0 400 400" xml:space="preserve">
<path fill="#FF385C" opacity="1.000000" stroke="none" 
	d="
M271.000000,401.000000 
	C180.694733,401.000000 90.889473,401.000000 1.042102,401.000000 
	C1.042102,267.736420 1.042102,134.472794 1.042102,1.104592 
	C134.221878,1.104592 267.443848,1.104592 400.832916,1.104592 
	C400.832916,134.333160 400.832916,267.666565 400.832916,401.000000 
	C357.806183,401.000000 314.653107,401.000000 271.000000,401.000000 
M248.836975,122.518471 
	C248.486786,122.037376 248.136581,121.556282 247.866257,121.090424 
	C247.866257,121.090424 247.848495,121.169769 247.791275,120.558746 
	C247.474579,120.047127 247.157898,119.535507 246.927155,119.054497 
	C246.927155,119.054497 246.895203,119.139954 246.834320,118.527863 
	C246.485840,118.037361 246.137360,117.546860 245.872177,117.083801 
	C245.872177,117.083801 245.842438,117.166306 245.906952,116.426941 
	C245.202408,115.325226 244.497879,114.223511 243.871246,113.101807 
	C243.871246,113.101807 243.838165,113.175095 243.906372,112.399117 
	C242.469452,110.019257 241.032532,107.639389 239.723495,105.175682 
	C239.723495,105.175682 239.635727,105.300888 239.744431,104.526543 
	C238.123596,102.038643 236.502762,99.550735 234.954697,97.045250 
	C234.954697,97.045250 234.916565,97.109673 234.922577,96.393883 
	C233.931900,95.270554 232.941223,94.147232 231.999115,93.000259 
	C231.999115,93.000259 231.974518,93.048340 231.826385,92.469246 
	C231.387589,92.091232 230.948792,91.713219 230.640839,91.318634 
	C230.640839,91.318634 230.649826,91.450218 230.429825,90.952522 
	C230.138779,90.747284 229.847717,90.542053 229.701385,90.318329 
	C229.701385,90.318329 229.577209,90.394905 229.607132,89.676590 
	C228.291107,88.067284 227.209763,86.163902 225.621170,84.896141 
	C214.871979,76.317772 202.410797,75.381859 189.791336,78.505814 
	C185.349991,79.605286 179.530197,80.737480 177.542572,86.661362 
	C177.542572,86.661362 177.443726,86.645004 176.734253,86.514854 
	C170.577042,89.145966 167.640259,92.747360 168.028564,97.021477 
	C168.028564,97.021477 168.121628,97.077148 167.438705,97.211349 
	C161.965485,102.812912 158.483170,109.439186 157.126358,117.088921 
	C157.126358,117.088921 157.216110,117.055565 156.758469,117.468132 
	C156.548630,118.032883 156.338791,118.597633 156.108185,119.072113 
	C156.108185,119.072113 156.198898,119.053352 155.726028,119.441719 
	C155.511795,120.000397 155.297577,120.559082 155.054901,121.043137 
	C155.054901,121.043137 155.129898,121.015678 154.757492,121.406952 
	C154.655182,121.748642 154.552872,122.090340 154.449982,122.327065 
	C154.449982,122.327065 154.554642,122.335205 153.957550,122.660133 
	C153.669083,123.478020 153.380630,124.295906 153.053070,125.047775 
	C153.053070,125.047775 153.127335,125.067078 152.435715,125.216911 
	C148.403336,127.357368 147.860672,131.052567 148.006424,135.020554 
	C148.006424,135.020554 148.069824,135.030640 147.425476,135.232971 
	C142.038345,139.945572 139.210739,145.868225 138.986679,152.996658 
	C138.986679,152.996658 139.029938,152.996140 138.427444,153.350861 
	C137.294388,155.917557 136.161331,158.484253 134.995193,161.008408 
	C134.995193,161.008408 135.048248,161.017685 134.446869,161.083282 
	C134.061554,162.254623 133.676239,163.425964 133.284531,164.833069 
	C133.284531,164.833069 133.093918,164.971970 132.488632,165.353302 
	C131.686050,167.267258 130.883469,169.181198 130.028412,171.031998 
	C130.028412,171.031998 130.106461,171.057495 129.471512,171.248627 
	C128.421036,172.277390 126.978760,173.120285 126.387390,174.366837 
	C123.715431,179.999130 121.216614,185.717560 118.824219,191.475082 
	C118.355408,192.603333 118.634254,194.042267 118.634361,195.453537 
	C118.634361,195.453537 118.524879,195.529373 117.791534,195.573212 
	C117.243263,197.101807 116.694992,198.630402 116.119141,200.093857 
	C116.119141,200.093857 116.189430,200.086151 115.555038,200.402664 
	C114.543320,203.049088 113.531609,205.695496 112.572418,208.422409 
	C112.572418,208.422409 112.497894,208.483078 111.779259,208.503464 
	C110.576195,211.397079 109.373123,214.290680 108.132828,217.109161 
	C108.132828,217.109161 108.213478,217.132111 107.556374,217.353912 
	C106.515007,220.009949 105.473648,222.666000 104.227608,224.973053 
	C104.227608,224.973053 104.448967,225.316254 103.782570,225.541367 
	C103.312401,225.997910 102.684242,226.371674 102.395309,226.923157 
	C96.179100,238.788132 92.295494,251.335754 94.290726,264.770508 
	C95.205780,270.932007 96.293282,277.670227 102.010918,282.000793 
	C102.010918,282.000793 101.995071,282.025116 102.097946,282.598633 
	C102.446373,283.054443 102.794807,283.510254 103.071938,283.943268 
	C103.071938,283.943268 103.096138,283.872406 103.091156,284.630005 
	C105.234695,292.093872 107.377663,294.321594 112.529434,294.376160 
	C112.529434,294.376160 112.538536,294.442505 112.624992,295.154785 
	C114.134544,296.061462 115.644096,296.968170 117.085693,297.906708 
	C117.085693,297.906708 117.097244,297.832550 117.290993,298.491028 
	C125.087578,305.907379 135.557449,306.096832 145.117889,308.722168 
	C145.823334,308.915863 146.734039,308.466339 147.523972,308.230865 
	C151.958862,306.908752 156.415161,305.647339 160.799454,304.172821 
	C162.275208,303.676514 163.561279,302.616241 164.916382,301.883881 
	C164.916382,301.883881 164.846786,301.864044 165.530014,301.883057 
	C166.262451,301.423004 166.994888,300.962982 167.772430,300.640381 
	C167.772430,300.640381 167.673035,300.535309 168.453629,300.689758 
	C170.498199,300.078735 172.937027,299.976776 174.510849,298.757904 
	C178.656265,295.547424 184.705765,294.493927 186.592407,288.586029 
	C186.592407,288.586029 186.545242,288.643127 187.050034,288.448120 
	C187.264267,288.167206 187.478500,287.886292 187.717041,287.882690 
	C187.717041,287.882690 187.658096,287.610443 188.348312,287.628326 
	C189.210892,286.713654 190.073471,285.799011 190.948227,284.954834 
	C190.948227,284.954834 190.877533,284.965942 191.328964,284.707855 
	C191.540741,284.437134 191.752502,284.166382 191.966080,283.962280 
	C191.966080,283.962280 191.905807,283.933838 192.635376,283.913574 
	C194.642746,282.606323 196.592575,281.197083 198.674637,280.022186 
	C200.533813,278.973083 202.539047,278.182800 204.681290,277.339966 
	C204.681290,277.339966 204.710800,277.548553 204.560898,278.250366 
	C206.310593,282.056580 208.567093,285.287201 213.085754,285.901215 
	C213.085754,285.901215 213.143753,285.804596 213.231323,286.497253 
	C215.634628,289.493744 218.037933,292.490234 220.911896,296.073517 
	C223.026489,296.422028 226.192490,296.943787 229.350876,297.561859 
	C229.350876,297.561859 229.414017,297.488770 229.585632,298.170929 
	C231.778931,299.530914 233.816467,301.343384 236.195969,302.162354 
	C242.281372,304.256744 248.464874,307.133545 254.710266,307.409637 
	C261.612640,307.714813 268.789093,306.044189 275.531799,304.127899 
	C279.484222,303.004639 282.823578,299.724365 286.471008,297.334900 
	C286.471008,297.334900 286.554504,297.354462 287.298157,297.489319 
	C290.232666,297.107788 292.631531,296.174438 292.414886,292.395813 
	C292.414886,292.395813 292.553833,292.394104 293.294617,292.550354 
	C294.030457,291.558197 294.766296,290.566040 295.649902,289.528961 
	C295.649902,289.528961 295.516937,289.596527 296.209290,289.467285 
	C297.027771,288.200806 297.846222,286.934296 298.939270,285.957642 
	C298.939270,285.957642 298.649689,285.682617 299.337433,285.597870 
	C300.157562,284.830505 301.201874,284.199432 301.763947,283.275116 
	C309.352448,270.795685 311.422485,257.391724 307.209778,243.433792 
	C305.587433,238.058456 302.351440,233.170151 299.919983,228.062576 
	C299.919983,228.062576 299.892548,228.126312 299.847198,227.526306 
	C299.544830,227.018585 299.242432,226.510864 298.998474,226.012970 
	C298.998474,226.012970 298.958984,226.057144 299.009979,225.268524 
	C297.055237,220.057068 295.381470,214.715408 293.048157,209.679337 
	C291.458160,206.247574 288.945801,203.243134 286.912537,200.068359 
	C286.912537,200.068359 286.882935,200.131577 287.000977,199.471207 
	C285.838989,197.432358 284.677002,195.393524 283.738129,193.346863 
	C283.738129,193.346863 283.525269,193.337936 283.702606,192.585098 
	C282.695312,190.776169 281.688049,188.967224 280.752411,187.172180 
	C280.752411,187.172180 280.730133,187.241653 280.711304,186.620941 
	C280.370911,186.120667 280.030487,185.620377 279.784790,185.138290 
	C279.784790,185.138290 279.762604,185.232147 279.807587,184.456772 
	C278.486389,181.998566 277.165222,179.540375 275.920074,177.063263 
	C275.920074,177.063263 275.882874,177.132217 275.946747,176.354172 
	C274.805450,174.346939 273.664124,172.339722 272.768005,170.346069 
	C272.768005,170.346069 272.527405,170.299210 272.695557,169.533325 
	C271.115265,166.690628 269.534973,163.847946 267.498505,160.641861 
	C267.315247,160.095490 267.132019,159.549118 267.322021,158.466110 
	C266.535400,157.305695 265.748810,156.145264 264.776001,154.826843 
	C264.776001,154.826843 264.782410,154.582733 264.642548,153.988510 
	C264.411652,153.658310 264.180725,153.328110 263.530640,152.624359 
	C263.356750,152.097015 263.182892,151.569672 263.288422,150.493683 
	C261.603729,146.466858 260.176270,142.305115 258.156403,138.454117 
	C256.409302,135.123184 253.989487,132.145096 251.432205,128.651672 
	C251.257736,128.120667 251.083252,127.589661 251.178696,126.653740 
	C250.743790,126.125740 250.308884,125.597740 249.944839,125.055954 
	C249.944839,125.055954 249.914169,125.121307 249.851257,124.519150 
	C249.521484,124.026466 249.191711,123.533775 248.929016,123.059311 
	C248.929016,123.059311 248.902542,123.123573 248.836975,122.518471 
z"/>
<path fill="#F9F1F3" opacity="1.000000" stroke="none" 
	d="
M263.009033,151.042328 
	C263.182892,151.569672 263.356750,152.097015 263.770996,153.124069 
	C264.268402,153.943436 264.525391,154.263077 264.782410,154.582733 
	C264.782410,154.582733 264.776001,154.826843 264.888489,155.236206 
	C265.650269,156.764633 266.299500,157.883682 266.948761,159.002747 
	C267.132019,159.549118 267.315247,160.095490 267.767914,161.180756 
	C269.533997,164.579514 271.030701,167.439362 272.527405,170.299210 
	C272.527405,170.299210 272.768005,170.346069 272.693909,170.693634 
	C273.707520,173.071533 274.795197,175.101868 275.882874,177.132217 
	C275.882874,177.132217 275.920074,177.063263 275.906555,177.436859 
	C277.182892,180.284348 278.472748,182.758255 279.762604,185.232147 
	C279.762604,185.232147 279.784790,185.138290 279.767822,185.438995 
	C280.077301,186.240356 280.403717,186.740997 280.730133,187.241653 
	C280.730133,187.241653 280.752411,187.172180 280.749847,187.515228 
	C281.673279,189.684830 282.599274,191.511383 283.525269,193.337936 
	C283.525269,193.337936 283.738129,193.346863 283.689758,193.695328 
	C284.721893,196.073059 285.802399,198.102310 286.882935,200.131577 
	C286.882935,200.131577 286.912537,200.068359 286.894836,200.433105 
	C290.904419,209.217636 294.931702,217.637390 298.958984,226.057144 
	C298.958984,226.057144 298.998474,226.012970 298.963013,226.318024 
	C299.249237,227.124146 299.570892,227.625229 299.892548,228.126312 
	C299.892548,228.126312 299.919983,228.062576 299.918121,228.435349 
	C309.430084,247.987564 310.895447,266.987762 298.649689,285.682617 
	C298.649689,285.682617 298.939270,285.957642 298.522400,285.964966 
	C297.242676,287.180389 296.379822,288.388458 295.516937,289.596527 
	C295.516937,289.596527 295.649902,289.528961 295.304108,289.670044 
	C294.156830,290.672150 293.355316,291.533112 292.553833,292.394104 
	C292.553833,292.394104 292.414886,292.395813 292.128723,292.616119 
	C290.079865,294.342438 288.317169,295.848450 286.554504,297.354462 
	C286.554504,297.354462 286.471008,297.334900 286.120972,297.483398 
	C278.468109,300.144867 271.335236,303.592590 263.823853,304.958618 
	C251.592255,307.182983 240.256760,302.919617 229.414017,297.488770 
	C229.414017,297.488770 229.350876,297.561859 229.128479,297.276001 
	C223.651962,293.261658 218.397858,289.533142 213.143753,285.804596 
	C213.143753,285.804596 213.085754,285.901215 212.997101,285.564392 
	C210.175903,282.667877 207.443359,280.108215 204.710800,277.548553 
	C204.710800,277.548553 204.681290,277.339966 204.432617,277.045868 
	C203.262238,275.920532 202.340561,275.089325 201.226685,274.084747 
	C197.960434,277.536102 194.933121,280.734955 191.905807,283.933838 
	C191.905807,283.933838 191.966080,283.962280 191.699326,284.004883 
	C191.247559,284.353638 191.062546,284.659790 190.877533,284.965942 
	C190.877533,284.965942 190.948227,284.954834 190.641907,285.009369 
	C189.443085,285.912750 188.550583,286.761597 187.658081,287.610443 
	C187.658096,287.610443 187.717041,287.882690 187.450150,287.837158 
	C186.970581,288.075470 186.757919,288.359283 186.545242,288.643127 
	C186.545242,288.643127 186.592407,288.586029 186.247314,288.697388 
	C179.825836,292.717590 173.749435,296.626465 167.673035,300.535309 
	C167.673035,300.535309 167.772430,300.640381 167.425354,300.625916 
	C166.334442,301.029022 165.590622,301.446533 164.846786,301.864044 
	C164.846786,301.864044 164.916382,301.883881 164.527802,301.873047 
	C159.787872,302.917725 155.485916,304.300568 151.075729,304.966064 
	C138.915787,306.801147 127.656677,303.867462 117.097244,297.832550 
	C117.097244,297.832550 117.085693,297.906708 116.950851,297.613098 
	C115.390182,296.360474 113.964355,295.401489 112.538528,294.442505 
	C112.538536,294.442505 112.529434,294.376160 112.337906,294.093689 
	C109.129639,290.498260 106.112892,287.185333 103.096146,283.872406 
	C103.096138,283.872406 103.071938,283.943268 103.074638,283.658630 
	C102.716583,282.924377 102.355827,282.474762 101.995071,282.025116 
	C101.995071,282.025116 102.010918,282.000793 101.936859,281.644897 
	C96.110619,270.906677 93.750748,259.771759 96.500206,248.222580 
	C98.362549,240.399719 101.745903,232.938965 104.448975,225.316254 
	C104.448967,225.316254 104.227608,224.973053 104.568100,224.907471 
	C106.010223,222.271957 107.111847,219.702042 108.213478,217.132111 
	C108.213478,217.132111 108.132828,217.109161 108.424789,216.932465 
	C109.977127,213.998215 111.237511,211.240646 112.497894,208.483078 
	C112.497894,208.483078 112.572418,208.422409 112.747063,208.113739 
	C114.010948,205.232086 115.100189,202.659119 116.189423,200.086151 
	C116.189430,200.086151 116.119141,200.093857 116.387054,199.912933 
	C117.278267,198.331131 117.901573,196.930252 118.524879,195.529373 
	C118.524879,195.529373 118.634361,195.453537 118.813126,195.137207 
	C122.696754,186.899765 126.401611,178.978622 130.106461,171.057495 
	C130.106461,171.057495 130.028412,171.031998 130.320740,170.848221 
	C131.440002,168.766953 132.266968,166.869461 133.093918,164.971970 
	C133.093918,164.971970 133.284531,164.833069 133.544220,164.487793 
	C134.218704,163.100906 134.633469,162.059296 135.048248,161.017685 
	C135.048248,161.017685 134.995193,161.008408 135.288513,160.825195 
	C136.731186,158.093369 137.880554,155.544754 139.029938,152.996140 
	C139.029938,152.996140 138.986679,152.996658 139.271637,152.802704 
	C142.394348,146.749390 145.232086,140.890015 148.069824,135.030640 
	C148.069824,135.030640 148.006424,135.020554 148.296005,134.829620 
	C150.099503,131.448135 151.613419,128.257614 153.127335,125.067078 
	C153.127335,125.067078 153.053070,125.047775 153.328293,124.884171 
	C153.920563,123.925438 154.237610,123.130325 154.554642,122.335205 
	C154.554642,122.335205 154.449982,122.327065 154.663483,122.202118 
	C154.961273,121.723343 155.045593,121.369514 155.129913,121.015678 
	C155.129898,121.015678 155.054901,121.043137 155.335968,120.919838 
	C155.810989,120.215477 156.004944,119.634415 156.198914,119.053352 
	C156.198898,119.053352 156.108185,119.072113 156.384125,118.948410 
	C156.845398,118.234985 157.030746,117.645271 157.216095,117.055565 
	C157.216110,117.055565 157.126358,117.088921 157.414062,116.923080 
	C161.175064,110.197205 164.648346,103.637177 168.121628,97.077148 
	C168.121628,97.077148 168.028564,97.021477 168.362305,96.907906 
	C171.611938,93.411224 174.527832,90.028114 177.443726,86.645004 
	C177.443726,86.645004 177.542572,86.661362 177.877762,86.489212 
	C182.184830,84.278511 185.960220,81.591042 190.163940,80.318184 
	C205.200623,75.765198 218.276901,79.840561 229.577209,90.394905 
	C229.577209,90.394905 229.701385,90.318329 229.725876,90.586571 
	C230.050186,91.053284 230.350006,91.251747 230.649826,91.450218 
	C230.649826,91.450218 230.640839,91.318634 230.664917,91.610840 
	C231.117508,92.284805 231.546005,92.666573 231.974518,93.048340 
	C231.974518,93.048340 231.999115,93.000259 232.052704,93.325363 
	C233.043060,94.803528 233.979813,95.956604 234.916565,97.109673 
	C234.916565,97.109673 234.954697,97.045250 234.975403,97.399857 
	C236.542648,100.269943 238.089188,102.785416 239.635727,105.300888 
	C239.635727,105.300888 239.723495,105.175682 239.720459,105.570427 
	C241.091003,108.368477 242.464584,110.771782 243.838165,113.175095 
	C243.838165,113.175095 243.871246,113.101807 243.859650,113.446411 
	C244.512848,114.916115 245.177643,116.041214 245.842438,117.166306 
	C245.842438,117.166306 245.872177,117.083801 245.850861,117.383705 
	C246.184769,118.169060 246.539993,118.654503 246.895203,119.139954 
	C246.895203,119.139954 246.927155,119.054497 246.899353,119.354111 
	C247.197189,120.159073 247.522842,120.664421 247.848495,121.169769 
	C247.848495,121.169769 247.866257,121.090424 247.861221,121.387016 
	C248.204971,122.163597 248.553757,122.643593 248.902527,123.123581 
	C248.902542,123.123573 248.929016,123.059311 248.909286,123.357986 
	C249.231094,124.144875 249.572632,124.633087 249.914185,125.121307 
	C249.914169,125.121307 249.944839,125.055954 249.927155,125.357666 
	C250.242569,126.125809 250.575668,126.592232 250.908768,127.058662 
	C251.083252,127.589661 251.257736,128.120667 251.704254,129.193695 
	C255.653885,136.837921 259.331451,143.940125 263.009033,151.042328 
M181.862305,103.876030 
	C181.862305,103.876030 181.849808,103.771088 181.355270,104.009171 
	C181.219833,104.338425 181.084396,104.667679 181.004944,104.999397 
	C181.004944,104.999397 180.978775,104.949852 180.528381,105.172379 
	C180.417816,105.473419 180.307251,105.774460 180.101089,106.112717 
	C180.101089,106.112717 180.139481,106.207840 179.613205,106.620331 
	C178.588654,108.652039 177.564102,110.683739 176.628006,112.717911 
	C176.628006,112.717911 176.623062,112.629547 176.147980,112.913895 
	C176.038162,113.257797 175.928329,113.601692 175.348892,114.436661 
	C154.852448,156.490448 134.204636,198.471512 113.941254,240.637299 
	C106.798813,255.499893 109.306656,270.266571 119.621155,280.961426 
	C129.435562,291.137726 145.511322,293.983734 159.968292,287.846771 
	C170.900085,283.206238 179.612000,275.496979 187.943771,267.221039 
	C191.114975,264.071045 191.221222,262.121521 188.587769,258.199707 
	C181.376373,247.460266 174.397186,236.465820 168.508636,224.966736 
	C163.283524,214.763168 161.324493,203.413300 163.499115,191.903549 
	C167.131210,172.679626 184.356262,159.766098 203.822739,161.275604 
	C225.077377,162.923798 239.702469,177.868622 240.165192,198.504578 
	C240.511154,213.933456 234.648621,227.487595 226.883133,240.294128 
	C222.171326,248.064651 216.756210,255.408691 211.473206,263.216034 
	C220.983612,273.481995 230.844971,283.085297 244.151566,288.191254 
	C261.561127,294.871613 278.691833,289.714752 288.003876,274.849762 
	C294.892578,263.853180 294.394531,252.342987 289.221405,240.909058 
	C282.220490,225.435211 275.250610,209.935333 267.740814,194.706299 
	C254.416397,167.685684 240.695892,140.860382 227.113312,113.415665 
	C226.894775,113.141319 226.676224,112.866974 226.408264,112.729454 
	C226.408264,112.729454 226.511490,112.626968 226.396408,112.004250 
	C226.039368,111.497787 225.682327,110.991333 225.266510,110.207634 
	C225.266510,110.207634 225.065460,110.007919 224.986710,109.309692 
	C223.453644,107.090828 221.920578,104.871964 220.252090,102.771957 
	C220.252090,102.771957 220.416885,102.699089 220.251175,102.140343 
	C219.823288,101.766502 219.395386,101.392654 218.992722,101.008987 
	C218.992722,101.008987 218.979004,101.032898 218.818619,100.487541 
	C218.377304,100.145508 217.935989,99.803474 217.488129,99.406181 
	C217.488129,99.406181 217.434174,99.392548 217.167923,98.836922 
	C216.156128,98.164413 215.144348,97.491905 214.063278,96.938652 
	C214.063278,96.938652 214.164124,96.844559 213.733566,96.284248 
	C202.745056,90.179672 191.002762,92.193565 183.435104,101.489723 
	C183.435104,101.489723 183.443344,101.556152 183.010712,101.809723 
	C182.876587,102.108337 182.742447,102.406944 182.689072,102.726578 
	C182.689072,102.726578 182.665207,102.646629 182.190430,102.910736 
	C182.045975,103.235695 181.901520,103.560646 181.862305,103.876030 
M201.493759,175.905670 
	C186.230118,176.652451 176.518036,186.116333 177.411026,200.572510 
	C178.594635,219.733261 188.787323,234.874023 200.256256,249.414764 
	C201.690399,248.770325 202.662704,248.499313 203.430954,247.945343 
	C204.347580,247.284393 205.216705,246.475220 205.887650,245.568405 
	C214.261887,234.250473 221.609436,222.322479 224.711182,208.417984 
	C228.834717,189.932938 219.948837,177.291611 201.493759,175.905670 
z"/>
<path fill="#E65370" opacity="1.000000" stroke="none" 
	d="
M229.499817,297.829834 
	C240.256760,302.919617 251.592255,307.182983 263.823853,304.958618 
	C271.335236,303.592590 278.468109,300.144867 286.104828,297.523132 
	C282.823578,299.724365 279.484222,303.004639 275.531799,304.127899 
	C268.789093,306.044189 261.612640,307.714813 254.710266,307.409637 
	C248.464874,307.133545 242.281372,304.256744 236.195969,302.162354 
	C233.816467,301.343384 231.778931,299.530914 229.499817,297.829834 
z"/>
<path fill="#E65370" opacity="1.000000" stroke="none" 
	d="
M298.993561,285.640259 
	C310.895447,266.987762 309.430084,247.987564 299.883453,228.434036 
	C302.351440,233.170151 305.587433,238.058456 307.209778,243.433792 
	C311.422485,257.391724 309.352448,270.795685 301.763947,283.275116 
	C301.201874,284.199432 300.157562,284.830505 298.993561,285.640259 
z"/>
<path fill="#E65370" opacity="1.000000" stroke="none" 
	d="
M229.592163,90.035751 
	C218.276901,79.840561 205.200623,75.765198 190.163940,80.318184 
	C185.960220,81.591042 182.184830,84.278511 177.892548,86.441338 
	C179.530197,80.737480 185.349991,79.605286 189.791336,78.505814 
	C202.410797,75.381859 214.871979,76.317772 225.621170,84.896141 
	C227.209763,86.163902 228.291107,88.067284 229.592163,90.035751 
z"/>
<path fill="#E65370" opacity="1.000000" stroke="none" 
	d="
M104.115768,225.428802 
	C101.745903,232.938965 98.362549,240.399719 96.500206,248.222580 
	C93.750748,259.771759 96.110619,270.906677 101.922440,281.645020 
	C96.293282,277.670227 95.205780,270.932007 94.290726,264.770508 
	C92.295494,251.335754 96.179100,238.788132 102.395309,226.923157 
	C102.684242,226.371674 103.312401,225.997910 104.115768,225.428802 
z"/>
<path fill="#E65370" opacity="1.000000" stroke="none" 
	d="
M117.194122,298.161804 
	C127.656677,303.867462 138.915787,306.801147 151.075729,304.966064 
	C155.485916,304.300568 159.787872,302.917725 164.536621,301.837952 
	C163.561279,302.616241 162.275208,303.676514 160.799454,304.172821 
	C156.415161,305.647339 151.958862,306.908752 147.523972,308.230865 
	C146.734039,308.466339 145.823334,308.915863 145.117889,308.722168 
	C135.557449,306.096832 125.087578,305.907379 117.194122,298.161804 
z"/>
<path fill="#E65370" opacity="1.000000" stroke="none" 
	d="
M298.984497,225.662842 
	C294.931702,217.637390 290.904419,209.217636 286.861511,200.422745 
	C288.945801,203.243134 291.458160,206.247574 293.048157,209.679337 
	C295.381470,214.715408 297.055237,220.057068 298.984497,225.662842 
z"/>
<path fill="#E65370" opacity="1.000000" stroke="none" 
	d="
M129.788986,171.153061 
	C126.401611,178.978622 122.696754,186.899765 118.780083,195.079407 
	C118.634254,194.042267 118.355408,192.603333 118.824219,191.475082 
	C121.216614,185.717560 123.715431,179.999130 126.387390,174.366837 
	C126.978760,173.120285 128.421036,172.277390 129.788986,171.153061 
z"/>
<path fill="#E65370" opacity="1.000000" stroke="none" 
	d="
M263.148743,150.768005 
	C259.331451,143.940125 255.653885,136.837921 251.921677,129.373383 
	C253.989487,132.145096 256.409302,135.123184 258.156403,138.454117 
	C260.176270,142.305115 261.603729,146.466858 263.148743,150.768005 
z"/>
<path fill="#E65370" opacity="1.000000" stroke="none" 
	d="
M213.187531,286.150940 
	C218.397858,289.533142 223.651962,293.261658 229.132263,297.227875 
	C226.192490,296.943787 223.026489,296.422028 220.911896,296.073517 
	C218.037933,292.490234 215.634628,289.493744 213.187531,286.150940 
z"/>
<path fill="#E65370" opacity="1.000000" stroke="none" 
	d="
M167.780167,97.144249 
	C164.648346,103.637177 161.175064,110.197205 157.431885,116.967514 
	C158.483170,109.439186 161.965485,102.812912 167.780167,97.144249 
z"/>
<path fill="#E65370" opacity="1.000000" stroke="none" 
	d="
M147.747650,135.131805 
	C145.232086,140.890015 142.394348,146.749390 139.283447,152.820831 
	C139.210739,145.868225 142.038345,139.945572 147.747650,135.131805 
z"/>
<path fill="#E65370" opacity="1.000000" stroke="none" 
	d="
M168.063324,300.612549 
	C173.749435,296.626465 179.825836,292.717590 186.213287,288.682770 
	C184.705765,294.493927 178.656265,295.547424 174.510849,298.757904 
	C172.937027,299.976776 170.498199,300.078735 168.063324,300.612549 
z"/>
<path fill="#E65370" opacity="1.000000" stroke="none" 
	d="
M103.093651,284.251221 
	C106.112892,287.185333 109.129639,290.498260 112.304474,294.091675 
	C107.377663,294.321594 105.234695,292.093872 103.093651,284.251221 
z"/>
<path fill="#E65370" opacity="1.000000" stroke="none" 
	d="
M192.270599,283.923706 
	C194.933121,280.734955 197.960434,277.536102 201.226685,274.084747 
	C202.340561,275.089325 203.262238,275.920532 204.331879,277.015076 
	C202.539047,278.182800 200.533813,278.973083 198.674637,280.022186 
	C196.592575,281.197083 194.642746,282.606323 192.270599,283.923706 
z"/>
<path fill="#E65370" opacity="1.000000" stroke="none" 
	d="
M177.088989,86.579933 
	C174.527832,90.028114 171.611938,93.411224 168.398041,96.948685 
	C167.640259,92.747360 170.577042,89.145966 177.088989,86.579933 
z"/>
<path fill="#E65370" opacity="1.000000" stroke="none" 
	d="
M204.635849,277.899475 
	C207.443359,280.108215 210.175903,282.667877 213.044678,285.534180 
	C208.567093,285.287201 206.310593,282.056580 204.635849,277.899475 
z"/>
<path fill="#E65370" opacity="1.000000" stroke="none" 
	d="
M152.781525,125.141998 
	C151.613419,128.257614 150.099503,131.448135 148.315399,134.855194 
	C147.860672,131.052567 148.403336,127.357368 152.781525,125.141998 
z"/>
<path fill="#E65370" opacity="1.000000" stroke="none" 
	d="
M272.611481,169.916260 
	C271.030701,167.439362 269.533997,164.579514 267.995972,161.362457 
	C269.534973,163.847946 271.115265,166.690628 272.611481,169.916260 
z"/>
<path fill="#E65370" opacity="1.000000" stroke="none" 
	d="
M239.690079,104.913712 
	C238.089188,102.785416 236.542648,100.269943 234.939011,97.408653 
	C236.502762,99.550735 238.123596,102.038643 239.690079,104.913712 
z"/>
<path fill="#E65370" opacity="1.000000" stroke="none" 
	d="
M112.138573,208.493271 
	C111.237511,211.240646 109.977127,213.998215 108.443405,216.970032 
	C109.373123,214.290680 110.576195,211.397079 112.138573,208.493271 
z"/>
<path fill="#E65370" opacity="1.000000" stroke="none" 
	d="
M115.872231,200.244415 
	C115.100189,202.659119 114.010948,205.232086 112.720795,208.073486 
	C113.531609,205.695496 114.543320,203.049088 115.872231,200.244415 
z"/>
<path fill="#E65370" opacity="1.000000" stroke="none" 
	d="
M286.926331,297.421875 
	C288.317169,295.848450 290.079865,294.342438 292.122803,292.685364 
	C292.631531,296.174438 290.232666,297.107788 286.926331,297.421875 
z"/>
<path fill="#E65370" opacity="1.000000" stroke="none" 
	d="
M107.884926,217.243011 
	C107.111847,219.702042 106.010223,222.271957 104.670441,225.081970 
	C105.473648,222.666000 106.515007,220.009949 107.884926,217.243011 
z"/>
<path fill="#E65370" opacity="1.000000" stroke="none" 
	d="
M279.785095,184.844452 
	C278.472748,182.758255 277.182892,180.284348 275.868530,177.446320 
	C277.165222,179.540375 278.486389,181.998566 279.785095,184.844452 
z"/>
<path fill="#E65370" opacity="1.000000" stroke="none" 
	d="
M243.872269,112.787102 
	C242.464584,110.771782 241.091003,108.368477 239.656525,105.612350 
	C241.032532,107.639389 242.469452,110.019257 243.872269,112.787102 
z"/>
<path fill="#E65370" opacity="1.000000" stroke="none" 
	d="
M138.728699,153.173492 
	C137.880554,155.544754 136.731186,158.093369 135.305054,160.846466 
	C136.161331,158.484253 137.294388,155.917557 138.728699,153.173492 
z"/>
<path fill="#E65370" opacity="1.000000" stroke="none" 
	d="
M286.941956,199.801392 
	C285.802399,198.102310 284.721893,196.073059 283.578186,193.699234 
	C284.677002,195.393524 285.838989,197.432358 286.941956,199.801392 
z"/>
<path fill="#E65370" opacity="1.000000" stroke="none" 
	d="
M275.914795,176.743195 
	C274.795197,175.101868 273.707520,173.071533 272.571350,170.686829 
	C273.664124,172.339722 274.805450,174.346939 275.914795,176.743195 
z"/>
<path fill="#E65370" opacity="1.000000" stroke="none" 
	d="
M283.613953,192.961517 
	C282.599274,191.511383 281.673279,189.684830 280.714050,187.508270 
	C281.688049,188.967224 282.695312,190.776169 283.613953,192.961517 
z"/>
<path fill="#E65370" opacity="1.000000" stroke="none" 
	d="
M267.135376,158.734436 
	C266.299500,157.883682 265.650269,156.764633 264.981598,155.315216 
	C265.748810,156.145264 266.535400,157.305695 267.135376,158.734436 
z"/>
<path fill="#E65370" opacity="1.000000" stroke="none" 
	d="
M132.791275,165.162628 
	C132.266968,166.869461 131.440002,168.766953 130.346954,170.879791 
	C130.883469,169.181198 131.686050,167.267258 132.791275,165.162628 
z"/>
<path fill="#E65370" opacity="1.000000" stroke="none" 
	d="
M112.581757,294.798645 
	C113.964355,295.401489 115.390182,296.360474 116.984825,297.597168 
	C115.644096,296.968170 114.134544,296.061462 112.581757,294.798645 
z"/>
<path fill="#E65370" opacity="1.000000" stroke="none" 
	d="
M234.919571,96.751778 
	C233.979813,95.956604 233.043060,94.803528 232.028442,93.337181 
	C232.941223,94.147232 233.931900,95.270554 234.919571,96.751778 
z"/>
<path fill="#E65370" opacity="1.000000" stroke="none" 
	d="
M292.924225,292.472229 
	C293.355316,291.533112 294.156830,290.672150 295.230225,289.692505 
	C294.766296,290.566040 294.030457,291.558197 292.924225,292.472229 
z"/>
<path fill="#E65370" opacity="1.000000" stroke="none" 
	d="
M118.158203,195.551300 
	C117.901573,196.930252 117.278267,198.331131 116.400841,199.945496 
	C116.694992,198.630402 117.243263,197.101807 118.158203,195.551300 
z"/>
<path fill="#E65370" opacity="1.000000" stroke="none" 
	d="
M245.874695,116.796623 
	C245.177643,116.041214 244.512848,114.916115 243.820709,113.456406 
	C244.497879,114.223511 245.202408,115.325226 245.874695,116.796623 
z"/>
<path fill="#E65370" opacity="1.000000" stroke="none" 
	d="
M188.003204,287.619385 
	C188.550583,286.761597 189.443085,285.912750 190.635818,284.974121 
	C190.073471,285.799011 189.210892,286.713654 188.003204,287.619385 
z"/>
<path fill="#E65370" opacity="1.000000" stroke="none" 
	d="
M295.863098,289.531921 
	C296.379822,288.388458 297.242676,287.180389 298.385132,285.820068 
	C297.846222,286.934296 297.027771,288.200806 295.863098,289.531921 
z"/>
<path fill="#E65370" opacity="1.000000" stroke="none" 
	d="
M134.747559,161.050476 
	C134.633469,162.059296 134.218704,163.100906 133.547424,164.369904 
	C133.676239,163.425964 134.061554,162.254623 134.747559,161.050476 
z"/>
<path fill="#E65370" opacity="1.000000" stroke="none" 
	d="
M251.043732,126.856201 
	C250.575668,126.592232 250.242569,126.125809 249.891724,125.364555 
	C250.308884,125.597740 250.743790,126.125740 251.043732,126.856201 
z"/>
<path fill="#E65370" opacity="1.000000" stroke="none" 
	d="
M165.188400,301.873535 
	C165.590622,301.446533 166.334442,301.029022 167.402802,300.557220 
	C166.994888,300.962982 166.262451,301.423004 165.188400,301.873535 
z"/>
<path fill="#E65370" opacity="1.000000" stroke="none" 
	d="
M154.256104,122.497665 
	C154.237610,123.130325 153.920563,123.925438 153.347839,124.917175 
	C153.380630,124.295906 153.669083,123.478020 154.256104,122.497665 
z"/>
<path fill="#E65370" opacity="1.000000" stroke="none" 
	d="
M155.962463,119.247536 
	C156.004944,119.634415 155.810989,120.215477 155.350189,120.957153 
	C155.297577,120.559082 155.511795,120.000397 155.962463,119.247536 
z"/>
<path fill="#E65370" opacity="1.000000" stroke="none" 
	d="
M102.046509,282.311890 
	C102.355827,282.474762 102.716583,282.924377 103.110291,283.670044 
	C102.794807,283.510254 102.446373,283.054443 102.046509,282.311890 
z"/>
<path fill="#E65370" opacity="1.000000" stroke="none" 
	d="
M246.864761,118.833908 
	C246.539993,118.654503 246.184769,118.169060 245.809219,117.369987 
	C246.137360,117.546860 246.485840,118.037361 246.864761,118.833908 
z"/>
<path fill="#E65370" opacity="1.000000" stroke="none" 
	d="
M156.987274,117.261848 
	C157.030746,117.645271 156.845398,118.234985 156.394501,118.993546 
	C156.338791,118.597633 156.548630,118.032883 156.987274,117.261848 
z"/>
<path fill="#E65370" opacity="1.000000" stroke="none" 
	d="
M299.869873,227.826309 
	C299.570892,227.625229 299.249237,227.124146 298.933807,226.313110 
	C299.242432,226.510864 299.544830,227.018585 299.869873,227.826309 
z"/>
<path fill="#E65370" opacity="1.000000" stroke="none" 
	d="
M231.900452,92.758789 
	C231.546005,92.666573 231.117508,92.284805 230.599487,91.619118 
	C230.948792,91.713219 231.387589,92.091232 231.900452,92.758789 
z"/>
<path fill="#E65370" opacity="1.000000" stroke="none" 
	d="
M247.819885,120.864258 
	C247.522842,120.664421 247.197189,120.159073 246.856369,119.338806 
	C247.157898,119.535507 247.474579,120.047127 247.819885,120.864258 
z"/>
<path fill="#E65370" opacity="1.000000" stroke="none" 
	d="
M249.882721,124.820221 
	C249.572632,124.633087 249.231094,124.144875 248.875748,123.348877 
	C249.191711,123.533775 249.521484,124.026466 249.882721,124.820221 
z"/>
<path fill="#E65370" opacity="1.000000" stroke="none" 
	d="
M280.720703,186.931305 
	C280.403717,186.740997 280.077301,186.240356 279.720490,185.429901 
	C280.030487,185.620377 280.370911,186.120667 280.720703,186.931305 
z"/>
<path fill="#E65370" opacity="1.000000" stroke="none" 
	d="
M248.869751,122.821030 
	C248.553757,122.643593 248.204971,122.163597 247.821289,121.379395 
	C248.136581,121.556282 248.486786,122.037376 248.869751,122.821030 
z"/>
<path fill="#E65370" opacity="1.000000" stroke="none" 
	d="
M264.712463,154.285614 
	C264.525391,154.263077 264.268402,153.943436 263.980591,153.310852 
	C264.180725,153.328110 264.411652,153.658310 264.712463,154.285614 
z"/>
<path fill="#E65370" opacity="1.000000" stroke="none" 
	d="
M230.539825,91.201370 
	C230.350006,91.251747 230.050186,91.053284 229.653519,90.595810 
	C229.847717,90.542053 230.138779,90.747284 230.539825,91.201370 
z"/>
<path fill="#E65370" opacity="1.000000" stroke="none" 
	d="
M186.797638,288.545624 
	C186.757919,288.359283 186.970581,288.075470 187.438004,287.698486 
	C187.478500,287.886292 187.264267,288.167206 186.797638,288.545624 
z"/>
<path fill="#E65370" opacity="1.000000" stroke="none" 
	d="
M154.943695,121.211319 
	C155.045593,121.369514 154.961273,121.723343 154.663757,122.254608 
	C154.552872,122.090340 154.655182,121.748642 154.943695,121.211319 
z"/>
<path fill="#E65370" opacity="1.000000" stroke="none" 
	d="
M191.103241,284.836914 
	C191.062546,284.659790 191.247559,284.353638 191.698425,283.971558 
	C191.752502,284.166382 191.540741,284.437134 191.103241,284.836914 
z"/>
<path fill="#FC3A5E" opacity="1.000000" stroke="none" 
	d="
M225.065460,110.007919 
	C225.065460,110.007919 225.266510,110.207634 225.302704,110.674553 
	C225.729752,111.636635 226.120621,112.131798 226.511490,112.626968 
	C226.511490,112.626968 226.408264,112.729454 226.472717,112.921890 
	C226.738480,113.394005 226.939789,113.673691 227.141113,113.953369 
	C240.695892,140.860382 254.416397,167.685684 267.740814,194.706299 
	C275.250610,209.935333 282.220490,225.435211 289.221405,240.909058 
	C294.394531,252.342987 294.892578,263.853180 288.003876,274.849762 
	C278.691833,289.714752 261.561127,294.871613 244.151566,288.191254 
	C230.844971,283.085297 220.983612,273.481995 211.473206,263.216034 
	C216.756210,255.408691 222.171326,248.064651 226.883133,240.294128 
	C234.648621,227.487595 240.511154,213.933456 240.165192,198.504578 
	C239.702469,177.868622 225.077377,162.923798 203.822739,161.275604 
	C184.356262,159.766098 167.131210,172.679626 163.499115,191.903549 
	C161.324493,203.413300 163.283524,214.763168 168.508636,224.966736 
	C174.397186,236.465820 181.376373,247.460266 188.587769,258.199707 
	C191.221222,262.121521 191.114975,264.071045 187.943771,267.221039 
	C179.612000,275.496979 170.900085,283.206238 159.968292,287.846771 
	C145.511322,293.983734 129.435562,291.137726 119.621155,280.961426 
	C109.306656,270.266571 106.798813,255.499893 113.941254,240.637299 
	C134.204636,198.471512 154.852448,156.490448 175.787567,114.020554 
	C176.358505,113.279472 176.490784,112.954506 176.623062,112.629547 
	C176.623062,112.629547 176.628006,112.717911 176.894257,112.554466 
	C178.153503,110.329964 179.146500,108.268906 180.139496,106.207840 
	C180.139481,106.207840 180.101089,106.112717 180.344788,105.958023 
	C180.822357,105.566299 180.952454,105.281799 180.978775,104.949852 
	C180.978775,104.949852 181.004944,104.999397 181.183899,104.839920 
	C181.525162,104.377319 181.687485,104.074203 181.849808,103.771088 
	C181.849808,103.771088 181.862305,103.876030 182.028778,103.729523 
	C182.351913,103.270882 182.508560,102.958755 182.665207,102.646629 
	C182.665207,102.646629 182.689072,102.726578 182.866272,102.589973 
	C183.176773,102.154297 183.310059,101.855225 183.443344,101.556152 
	C183.443344,101.556152 183.435104,101.489723 183.821686,101.452126 
	C185.484528,100.661438 186.877762,100.053032 188.017685,99.131325 
	C194.500519,93.889473 201.629944,92.732674 209.463730,95.465485 
	C211.003510,96.002632 212.595963,96.388771 214.164124,96.844559 
	C214.164124,96.844559 214.063278,96.938652 214.143005,97.239349 
	C215.293228,98.157555 216.363693,98.775055 217.434174,99.392548 
	C217.434174,99.392548 217.488129,99.406181 217.557617,99.719727 
	C218.077744,100.366478 218.528366,100.699684 218.979004,101.032898 
	C218.979004,101.032898 218.992722,101.008987 219.053436,101.299179 
	C219.548401,101.959274 219.982651,102.329178 220.416885,102.699089 
	C220.416885,102.699089 220.252090,102.771957 220.307373,103.077118 
	C221.930267,105.590828 223.497864,107.799377 225.065460,110.007919 
z"/>
<path fill="#FB3B5E" opacity="1.000000" stroke="none" 
	d="
M201.939880,175.916550 
	C219.948837,177.291611 228.834717,189.932938 224.711182,208.417984 
	C221.609436,222.322479 214.261887,234.250473 205.887650,245.568405 
	C205.216705,246.475220 204.347580,247.284393 203.430954,247.945343 
	C202.662704,248.499313 201.690399,248.770325 200.256256,249.414764 
	C188.787323,234.874023 178.594635,219.733261 177.411026,200.572510 
	C176.518036,186.116333 186.230118,176.652451 201.939880,175.916550 
z"/>
<path fill="#E35E7A" opacity="1.000000" stroke="none" 
	d="
M213.948853,96.564407 
	C212.595963,96.388771 211.003510,96.002632 209.463730,95.465485 
	C201.629944,92.732674 194.500519,93.889473 188.017685,99.131325 
	C186.877762,100.053032 185.484528,100.661438 183.853638,101.442123 
	C191.002762,92.193565 202.745056,90.179672 213.948853,96.564407 
z"/>
<path fill="#E35E7A" opacity="1.000000" stroke="none" 
	d="
M225.026093,109.658806 
	C223.497864,107.799377 221.930267,105.590828 220.375092,103.017685 
	C221.920578,104.871964 223.453644,107.090828 225.026093,109.658806 
z"/>
<path fill="#E35E7A" opacity="1.000000" stroke="none" 
	d="
M179.876343,106.414093 
	C179.146500,108.268906 178.153503,110.329964 176.850037,112.553238 
	C177.564102,110.683739 178.588654,108.652039 179.876343,106.414093 
z"/>
<path fill="#E35E7A" opacity="1.000000" stroke="none" 
	d="
M217.301056,99.114731 
	C216.363693,98.775055 215.293228,98.157555 214.177643,97.179718 
	C215.144348,97.491905 216.156128,98.164413 217.301056,99.114731 
z"/>
<path fill="#E35E7A" opacity="1.000000" stroke="none" 
	d="
M226.453949,112.315613 
	C226.120621,112.131798 225.729752,111.636635 225.332077,110.813171 
	C225.682327,110.991333 226.039368,111.497787 226.453949,112.315613 
z"/>
<path fill="#E35E7A" opacity="1.000000" stroke="none" 
	d="
M220.334030,102.419716 
	C219.982651,102.329178 219.548401,101.959274 219.040833,101.304092 
	C219.395386,101.392654 219.823288,101.766502 220.334030,102.419716 
z"/>
<path fill="#E35E7A" opacity="1.000000" stroke="none" 
	d="
M218.898804,100.760223 
	C218.528366,100.699684 218.077744,100.366478 217.560883,99.747360 
	C217.935989,99.803474 218.377304,100.145508 218.898804,100.760223 
z"/>
<path fill="#E35E7A" opacity="1.000000" stroke="none" 
	d="
M176.385529,112.771721 
	C176.490784,112.954506 176.358505,113.279472 176.022369,113.775009 
	C175.928329,113.601692 176.038162,113.257797 176.385529,112.771721 
z"/>
<path fill="#E35E7A" opacity="1.000000" stroke="none" 
	d="
M227.127213,113.684517 
	C226.939789,113.673691 226.738480,113.394005 226.497406,112.853477 
	C226.676224,112.866974 226.894775,113.141319 227.127213,113.684517 
z"/>
<path fill="#E35E7A" opacity="1.000000" stroke="none" 
	d="
M180.753571,105.061111 
	C180.952454,105.281799 180.822357,105.566299 180.392578,105.939415 
	C180.307251,105.774460 180.417816,105.473419 180.753571,105.061111 
z"/>
<path fill="#E35E7A" opacity="1.000000" stroke="none" 
	d="
M183.227020,101.682938 
	C183.310059,101.855225 183.176773,102.154297 182.825897,102.579468 
	C182.742447,102.406944 182.876587,102.108337 183.227020,101.682938 
z"/>
<path fill="#E35E7A" opacity="1.000000" stroke="none" 
	d="
M181.602539,103.890129 
	C181.687485,104.074203 181.525162,104.377319 181.155914,104.838684 
	C181.084396,104.667679 181.219833,104.338425 181.602539,103.890129 
z"/>
<path fill="#E35E7A" opacity="1.000000" stroke="none" 
	d="
M182.427826,102.778687 
	C182.508560,102.958755 182.351913,103.270882 181.976166,103.734306 
	C181.901520,103.560646 182.045975,103.235695 182.427826,102.778687 
z"/>
</svg>